<?xml version="1.0" encoding="UTF-8" standalone="yes"?><svg xmlns="http://www.w3.org/2000/svg" version="1.1" width="392" height="392" viewBox="0 0 392 392" shape-rendering="crispEdges"><path d="M0 0h392v392H0z" fill="#ffffff"/><path fill="#000000" d="M32 32h8v8h-8zM40 32h8v8h-8zM48 32h8v8h-8zM56 32h8v8h-8zM64 32h8v8h-8zM72 32h8v8h-8zM80 32h8v8h-8zM112 32h8v8h-8zM120 32h8v8h-8zM128 32h8v8h-8zM136 32h8v8h-8zM152 32h8v8h-8zM168 32h8v8h-8zM176 32h8v8h-8zM192 32h8v8h-8zM256 32h8v8h-8zM264 32h8v8h-8zM272 32h8v8h-8zM280 32h8v8h-8zM288 32h8v8h-8zM304 32h8v8h-8zM312 32h8v8h-8zM320 32h8v8h-8zM328 32h8v8h-8zM336 32h8v8h-8zM344 32h8v8h-8zM352 32h8v8h-8zM32 40h8v8h-8zM80 40h8v8h-8zM112 40h8v8h-8zM120 40h8v8h-8zM144 40h8v8h-8zM152 40h8v8h-8zM160 40h8v8h-8zM168 40h8v8h-8zM184 40h8v8h-8zM192 40h8v8h-8zM216 40h8v8h-8zM240 40h8v8h-8zM256 40h8v8h-8zM272 40h8v8h-8zM304 40h8v8h-8zM352 40h8v8h-8zM32 48h8v8h-8zM48 48h8v8h-8zM56 48h8v8h-8zM64 48h8v8h-8zM80 48h8v8h-8zM112 48h8v8h-8zM128 48h8v8h-8zM152 48h8v8h-8zM168 48h8v8h-8zM200 48h8v8h-8zM208 48h8v8h-8zM224 48h8v8h-8zM232 48h8v8h-8zM240 48h8v8h-8zM248 48h8v8h-8zM256 48h8v8h-8zM264 48h8v8h-8zM280 48h8v8h-8zM304 48h8v8h-8zM320 48h8v8h-8zM328 48h8v8h-8zM336 48h8v8h-8zM352 48h8v8h-8zM32 56h8v8h-8zM48 56h8v8h-8zM56 56h8v8h-8zM64 56h8v8h-8zM80 56h8v8h-8zM120 56h8v8h-8zM128 56h8v8h-8zM184 56h8v8h-8zM208 56h8v8h-8zM248 56h8v8h-8zM304 56h8v8h-8zM320 56h8v8h-8zM328 56h8v8h-8zM336 56h8v8h-8zM352 56h8v8h-8zM32 64h8v8h-8zM48 64h8v8h-8zM56 64h8v8h-8zM64 64h8v8h-8zM80 64h8v8h-8zM96 64h8v8h-8zM104 64h8v8h-8zM120 64h8v8h-8zM128 64h8v8h-8zM136 64h8v8h-8zM152 64h8v8h-8zM176 64h8v8h-8zM200 64h8v8h-8zM208 64h8v8h-8zM248 64h8v8h-8zM256 64h8v8h-8zM264 64h8v8h-8zM280 64h8v8h-8zM288 64h8v8h-8zM304 64h8v8h-8zM320 64h8v8h-8zM328 64h8v8h-8zM336 64h8v8h-8zM352 64h8v8h-8zM32 72h8v8h-8zM80 72h8v8h-8zM136 72h8v8h-8zM144 72h8v8h-8zM160 72h8v8h-8zM176 72h8v8h-8zM192 72h8v8h-8zM216 72h8v8h-8zM280 72h8v8h-8zM304 72h8v8h-8zM352 72h8v8h-8zM32 80h8v8h-8zM40 80h8v8h-8zM48 80h8v8h-8zM56 80h8v8h-8zM64 80h8v8h-8zM72 80h8v8h-8zM80 80h8v8h-8zM96 80h8v8h-8zM112 80h8v8h-8zM128 80h8v8h-8zM144 80h8v8h-8zM160 80h8v8h-8zM176 80h8v8h-8zM192 80h8v8h-8zM208 80h8v8h-8zM224 80h8v8h-8zM240 80h8v8h-8zM256 80h8v8h-8zM272 80h8v8h-8zM288 80h8v8h-8zM304 80h8v8h-8zM312 80h8v8h-8zM320 80h8v8h-8zM328 80h8v8h-8zM336 80h8v8h-8zM344 80h8v8h-8zM352 80h8v8h-8zM96 88h8v8h-8zM104 88h8v8h-8zM112 88h8v8h-8zM136 88h8v8h-8zM208 88h8v8h-8zM232 88h8v8h-8zM240 88h8v8h-8zM248 88h8v8h-8zM264 88h8v8h-8zM272 88h8v8h-8zM280 88h8v8h-8zM288 88h8v8h-8zM48 96h8v8h-8zM56 96h8v8h-8zM80 96h8v8h-8zM88 96h8v8h-8zM96 96h8v8h-8zM104 96h8v8h-8zM112 96h8v8h-8zM120 96h8v8h-8zM136 96h8v8h-8zM144 96h8v8h-8zM160 96h8v8h-8zM200 96h8v8h-8zM208 96h8v8h-8zM240 96h8v8h-8zM264 96h8v8h-8zM272 96h8v8h-8zM280 96h8v8h-8zM296 96h8v8h-8zM304 96h8v8h-8zM320 96h8v8h-8zM32 104h8v8h-8zM40 104h8v8h-8zM88 104h8v8h-8zM128 104h8v8h-8zM136 104h8v8h-8zM152 104h8v8h-8zM176 104h8v8h-8zM184 104h8v8h-8zM192 104h8v8h-8zM208 104h8v8h-8zM256 104h8v8h-8zM264 104h8v8h-8zM272 104h8v8h-8zM280 104h8v8h-8zM288 104h8v8h-8zM296 104h8v8h-8zM304 104h8v8h-8zM312 104h8v8h-8zM320 104h8v8h-8zM336 104h8v8h-8zM344 104h8v8h-8zM352 104h8v8h-8zM32 112h8v8h-8zM48 112h8v8h-8zM56 112h8v8h-8zM72 112h8v8h-8zM80 112h8v8h-8zM104 112h8v8h-8zM120 112h8v8h-8zM136 112h8v8h-8zM168 112h8v8h-8zM176 112h8v8h-8zM184 112h8v8h-8zM200 112h8v8h-8zM208 112h8v8h-8zM224 112h8v8h-8zM240 112h8v8h-8zM272 112h8v8h-8zM296 112h8v8h-8zM304 112h8v8h-8zM336 112h8v8h-8zM40 120h8v8h-8zM48 120h8v8h-8zM56 120h8v8h-8zM64 120h8v8h-8zM72 120h8v8h-8zM88 120h8v8h-8zM96 120h8v8h-8zM104 120h8v8h-8zM128 120h8v8h-8zM144 120h8v8h-8zM152 120h8v8h-8zM160 120h8v8h-8zM168 120h8v8h-8zM176 120h8v8h-8zM200 120h8v8h-8zM208 120h8v8h-8zM216 120h8v8h-8zM224 120h8v8h-8zM240 120h8v8h-8zM248 120h8v8h-8zM256 120h8v8h-8zM288 120h8v8h-8zM320 120h8v8h-8zM344 120h8v8h-8zM40 128h8v8h-8zM48 128h8v8h-8zM64 128h8v8h-8zM72 128h8v8h-8zM80 128h8v8h-8zM88 128h8v8h-8zM104 128h8v8h-8zM120 128h8v8h-8zM144 128h8v8h-8zM152 128h8v8h-8zM208 128h8v8h-8zM216 128h8v8h-8zM240 128h8v8h-8zM248 128h8v8h-8zM264 128h8v8h-8zM280 128h8v8h-8zM288 128h8v8h-8zM304 128h8v8h-8zM312 128h8v8h-8zM328 128h8v8h-8zM336 128h8v8h-8zM344 128h8v8h-8zM32 136h8v8h-8zM72 136h8v8h-8zM96 136h8v8h-8zM136 136h8v8h-8zM144 136h8v8h-8zM168 136h8v8h-8zM192 136h8v8h-8zM200 136h8v8h-8zM208 136h8v8h-8zM224 136h8v8h-8zM256 136h8v8h-8zM288 136h8v8h-8zM328 136h8v8h-8zM336 136h8v8h-8zM352 136h8v8h-8zM32 144h8v8h-8zM40 144h8v8h-8zM48 144h8v8h-8zM56 144h8v8h-8zM80 144h8v8h-8zM88 144h8v8h-8zM96 144h8v8h-8zM104 144h8v8h-8zM120 144h8v8h-8zM136 144h8v8h-8zM144 144h8v8h-8zM152 144h8v8h-8zM192 144h8v8h-8zM208 144h8v8h-8zM216 144h8v8h-8zM224 144h8v8h-8zM232 144h8v8h-8zM240 144h8v8h-8zM248 144h8v8h-8zM256 144h8v8h-8zM272 144h8v8h-8zM280 144h8v8h-8zM288 144h8v8h-8zM304 144h8v8h-8zM312 144h8v8h-8zM328 144h8v8h-8zM344 144h8v8h-8zM352 144h8v8h-8zM40 152h8v8h-8zM48 152h8v8h-8zM56 152h8v8h-8zM88 152h8v8h-8zM104 152h8v8h-8zM112 152h8v8h-8zM120 152h8v8h-8zM144 152h8v8h-8zM152 152h8v8h-8zM176 152h8v8h-8zM184 152h8v8h-8zM208 152h8v8h-8zM216 152h8v8h-8zM256 152h8v8h-8zM304 152h8v8h-8zM344 152h8v8h-8zM352 152h8v8h-8zM40 160h8v8h-8zM72 160h8v8h-8zM80 160h8v8h-8zM88 160h8v8h-8zM128 160h8v8h-8zM144 160h8v8h-8zM168 160h8v8h-8zM192 160h8v8h-8zM200 160h8v8h-8zM208 160h8v8h-8zM216 160h8v8h-8zM240 160h8v8h-8zM248 160h8v8h-8zM256 160h8v8h-8zM288 160h8v8h-8zM320 160h8v8h-8zM32 168h8v8h-8zM40 168h8v8h-8zM48 168h8v8h-8zM56 168h8v8h-8zM64 168h8v8h-8zM104 168h8v8h-8zM112 168h8v8h-8zM136 168h8v8h-8zM144 168h8v8h-8zM152 168h8v8h-8zM160 168h8v8h-8zM168 168h8v8h-8zM184 168h8v8h-8zM200 168h8v8h-8zM216 168h8v8h-8zM248 168h8v8h-8zM288 168h8v8h-8zM296 168h8v8h-8zM312 168h8v8h-8zM336 168h8v8h-8zM344 168h8v8h-8zM32 176h8v8h-8zM40 176h8v8h-8zM48 176h8v8h-8zM72 176h8v8h-8zM80 176h8v8h-8zM88 176h8v8h-8zM104 176h8v8h-8zM112 176h8v8h-8zM120 176h8v8h-8zM128 176h8v8h-8zM144 176h8v8h-8zM152 176h8v8h-8zM160 176h8v8h-8zM168 176h8v8h-8zM176 176h8v8h-8zM184 176h8v8h-8zM192 176h8v8h-8zM208 176h8v8h-8zM224 176h8v8h-8zM232 176h8v8h-8zM248 176h8v8h-8zM256 176h8v8h-8zM272 176h8v8h-8zM288 176h8v8h-8zM320 176h8v8h-8zM344 176h8v8h-8zM64 184h8v8h-8zM96 184h8v8h-8zM136 184h8v8h-8zM144 184h8v8h-8zM152 184h8v8h-8zM160 184h8v8h-8zM168 184h8v8h-8zM184 184h8v8h-8zM192 184h8v8h-8zM216 184h8v8h-8zM224 184h8v8h-8zM240 184h8v8h-8zM256 184h8v8h-8zM264 184h8v8h-8zM272 184h8v8h-8zM288 184h8v8h-8zM312 184h8v8h-8zM336 184h8v8h-8zM344 184h8v8h-8zM32 192h8v8h-8zM40 192h8v8h-8zM48 192h8v8h-8zM80 192h8v8h-8zM88 192h8v8h-8zM104 192h8v8h-8zM112 192h8v8h-8zM136 192h8v8h-8zM144 192h8v8h-8zM168 192h8v8h-8zM184 192h8v8h-8zM200 192h8v8h-8zM224 192h8v8h-8zM256 192h8v8h-8zM296 192h8v8h-8zM304 192h8v8h-8zM312 192h8v8h-8zM328 192h8v8h-8zM336 192h8v8h-8zM32 200h8v8h-8zM48 200h8v8h-8zM64 200h8v8h-8zM96 200h8v8h-8zM104 200h8v8h-8zM112 200h8v8h-8zM120 200h8v8h-8zM128 200h8v8h-8zM136 200h8v8h-8zM184 200h8v8h-8zM208 200h8v8h-8zM216 200h8v8h-8zM224 200h8v8h-8zM232 200h8v8h-8zM256 200h8v8h-8zM264 200h8v8h-8zM280 200h8v8h-8zM288 200h8v8h-8zM296 200h8v8h-8zM304 200h8v8h-8zM320 200h8v8h-8zM328 200h8v8h-8zM336 200h8v8h-8zM344 200h8v8h-8zM352 200h8v8h-8zM40 208h8v8h-8zM56 208h8v8h-8zM72 208h8v8h-8zM80 208h8v8h-8zM104 208h8v8h-8zM112 208h8v8h-8zM128 208h8v8h-8zM136 208h8v8h-8zM144 208h8v8h-8zM152 208h8v8h-8zM160 208h8v8h-8zM176 208h8v8h-8zM192 208h8v8h-8zM208 208h8v8h-8zM224 208h8v8h-8zM232 208h8v8h-8zM240 208h8v8h-8zM256 208h8v8h-8zM264 208h8v8h-8zM296 208h8v8h-8zM304 208h8v8h-8zM328 208h8v8h-8zM344 208h8v8h-8zM56 216h8v8h-8zM72 216h8v8h-8zM112 216h8v8h-8zM136 216h8v8h-8zM144 216h8v8h-8zM152 216h8v8h-8zM168 216h8v8h-8zM176 216h8v8h-8zM192 216h8v8h-8zM216 216h8v8h-8zM232 216h8v8h-8zM248 216h8v8h-8zM280 216h8v8h-8zM288 216h8v8h-8zM304 216h8v8h-8zM328 216h8v8h-8zM32 224h8v8h-8zM56 224h8v8h-8zM80 224h8v8h-8zM88 224h8v8h-8zM104 224h8v8h-8zM120 224h8v8h-8zM128 224h8v8h-8zM136 224h8v8h-8zM144 224h8v8h-8zM152 224h8v8h-8zM160 224h8v8h-8zM168 224h8v8h-8zM184 224h8v8h-8zM200 224h8v8h-8zM216 224h8v8h-8zM232 224h8v8h-8zM240 224h8v8h-8zM256 224h8v8h-8zM264 224h8v8h-8zM352 224h8v8h-8zM56 232h8v8h-8zM72 232h8v8h-8zM96 232h8v8h-8zM120 232h8v8h-8zM128 232h8v8h-8zM136 232h8v8h-8zM184 232h8v8h-8zM208 232h8v8h-8zM216 232h8v8h-8zM232 232h8v8h-8zM248 232h8v8h-8zM256 232h8v8h-8zM280 232h8v8h-8zM288 232h8v8h-8zM304 232h8v8h-8zM328 232h8v8h-8zM336 232h8v8h-8zM352 232h8v8h-8zM32 240h8v8h-8zM40 240h8v8h-8zM48 240h8v8h-8zM56 240h8v8h-8zM64 240h8v8h-8zM72 240h8v8h-8zM80 240h8v8h-8zM88 240h8v8h-8zM104 240h8v8h-8zM112 240h8v8h-8zM152 240h8v8h-8zM160 240h8v8h-8zM168 240h8v8h-8zM176 240h8v8h-8zM192 240h8v8h-8zM208 240h8v8h-8zM224 240h8v8h-8zM232 240h8v8h-8zM240 240h8v8h-8zM280 240h8v8h-8zM288 240h8v8h-8zM304 240h8v8h-8zM312 240h8v8h-8zM320 240h8v8h-8zM328 240h8v8h-8zM344 240h8v8h-8zM352 240h8v8h-8zM32 248h8v8h-8zM64 248h8v8h-8zM72 248h8v8h-8zM88 248h8v8h-8zM96 248h8v8h-8zM104 248h8v8h-8zM112 248h8v8h-8zM128 248h8v8h-8zM136 248h8v8h-8zM152 248h8v8h-8zM160 248h8v8h-8zM176 248h8v8h-8zM184 248h8v8h-8zM200 248h8v8h-8zM208 248h8v8h-8zM224 248h8v8h-8zM232 248h8v8h-8zM248 248h8v8h-8zM256 248h8v8h-8zM280 248h8v8h-8zM288 248h8v8h-8zM312 248h8v8h-8zM320 248h8v8h-8zM328 248h8v8h-8zM40 256h8v8h-8zM64 256h8v8h-8zM80 256h8v8h-8zM96 256h8v8h-8zM104 256h8v8h-8zM120 256h8v8h-8zM128 256h8v8h-8zM144 256h8v8h-8zM168 256h8v8h-8zM176 256h8v8h-8zM184 256h8v8h-8zM208 256h8v8h-8zM240 256h8v8h-8zM256 256h8v8h-8zM272 256h8v8h-8zM280 256h8v8h-8zM288 256h8v8h-8zM312 256h8v8h-8zM320 256h8v8h-8zM328 256h8v8h-8zM352 256h8v8h-8zM40 264h8v8h-8zM64 264h8v8h-8zM88 264h8v8h-8zM104 264h8v8h-8zM112 264h8v8h-8zM136 264h8v8h-8zM144 264h8v8h-8zM160 264h8v8h-8zM168 264h8v8h-8zM184 264h8v8h-8zM192 264h8v8h-8zM208 264h8v8h-8zM232 264h8v8h-8zM240 264h8v8h-8zM256 264h8v8h-8zM264 264h8v8h-8zM280 264h8v8h-8zM288 264h8v8h-8zM296 264h8v8h-8zM304 264h8v8h-8zM312 264h8v8h-8zM336 264h8v8h-8zM344 264h8v8h-8zM32 272h8v8h-8zM56 272h8v8h-8zM64 272h8v8h-8zM72 272h8v8h-8zM80 272h8v8h-8zM96 272h8v8h-8zM112 272h8v8h-8zM200 272h8v8h-8zM208 272h8v8h-8zM216 272h8v8h-8zM224 272h8v8h-8zM240 272h8v8h-8zM248 272h8v8h-8zM256 272h8v8h-8zM280 272h8v8h-8zM296 272h8v8h-8zM304 272h8v8h-8zM312 272h8v8h-8zM336 272h8v8h-8zM96 280h8v8h-8zM104 280h8v8h-8zM112 280h8v8h-8zM128 280h8v8h-8zM136 280h8v8h-8zM144 280h8v8h-8zM152 280h8v8h-8zM184 280h8v8h-8zM192 280h8v8h-8zM208 280h8v8h-8zM216 280h8v8h-8zM224 280h8v8h-8zM232 280h8v8h-8zM264 280h8v8h-8zM272 280h8v8h-8zM280 280h8v8h-8zM304 280h8v8h-8zM328 280h8v8h-8zM336 280h8v8h-8zM344 280h8v8h-8zM40 288h8v8h-8zM48 288h8v8h-8zM64 288h8v8h-8zM80 288h8v8h-8zM112 288h8v8h-8zM120 288h8v8h-8zM152 288h8v8h-8zM160 288h8v8h-8zM168 288h8v8h-8zM176 288h8v8h-8zM208 288h8v8h-8zM240 288h8v8h-8zM264 288h8v8h-8zM272 288h8v8h-8zM288 288h8v8h-8zM296 288h8v8h-8zM304 288h8v8h-8zM312 288h8v8h-8zM320 288h8v8h-8zM328 288h8v8h-8zM336 288h8v8h-8zM352 288h8v8h-8zM96 296h8v8h-8zM112 296h8v8h-8zM168 296h8v8h-8zM184 296h8v8h-8zM192 296h8v8h-8zM208 296h8v8h-8zM224 296h8v8h-8zM256 296h8v8h-8zM264 296h8v8h-8zM272 296h8v8h-8zM288 296h8v8h-8zM320 296h8v8h-8zM328 296h8v8h-8zM336 296h8v8h-8zM352 296h8v8h-8zM32 304h8v8h-8zM40 304h8v8h-8zM48 304h8v8h-8zM56 304h8v8h-8zM64 304h8v8h-8zM72 304h8v8h-8zM80 304h8v8h-8zM96 304h8v8h-8zM112 304h8v8h-8zM120 304h8v8h-8zM128 304h8v8h-8zM160 304h8v8h-8zM176 304h8v8h-8zM184 304h8v8h-8zM216 304h8v8h-8zM232 304h8v8h-8zM240 304h8v8h-8zM256 304h8v8h-8zM272 304h8v8h-8zM280 304h8v8h-8zM288 304h8v8h-8zM304 304h8v8h-8zM320 304h8v8h-8zM328 304h8v8h-8zM336 304h8v8h-8zM32 312h8v8h-8zM80 312h8v8h-8zM112 312h8v8h-8zM144 312h8v8h-8zM160 312h8v8h-8zM168 312h8v8h-8zM200 312h8v8h-8zM208 312h8v8h-8zM216 312h8v8h-8zM264 312h8v8h-8zM288 312h8v8h-8zM320 312h8v8h-8zM344 312h8v8h-8zM32 320h8v8h-8zM48 320h8v8h-8zM56 320h8v8h-8zM64 320h8v8h-8zM80 320h8v8h-8zM104 320h8v8h-8zM112 320h8v8h-8zM120 320h8v8h-8zM128 320h8v8h-8zM144 320h8v8h-8zM168 320h8v8h-8zM192 320h8v8h-8zM208 320h8v8h-8zM240 320h8v8h-8zM288 320h8v8h-8zM296 320h8v8h-8zM304 320h8v8h-8zM312 320h8v8h-8zM320 320h8v8h-8zM328 320h8v8h-8zM336 320h8v8h-8zM344 320h8v8h-8zM32 328h8v8h-8zM48 328h8v8h-8zM56 328h8v8h-8zM64 328h8v8h-8zM80 328h8v8h-8zM96 328h8v8h-8zM112 328h8v8h-8zM120 328h8v8h-8zM128 328h8v8h-8zM136 328h8v8h-8zM144 328h8v8h-8zM168 328h8v8h-8zM192 328h8v8h-8zM208 328h8v8h-8zM216 328h8v8h-8zM224 328h8v8h-8zM232 328h8v8h-8zM240 328h8v8h-8zM248 328h8v8h-8zM288 328h8v8h-8zM320 328h8v8h-8zM328 328h8v8h-8zM352 328h8v8h-8zM32 336h8v8h-8zM48 336h8v8h-8zM56 336h8v8h-8zM64 336h8v8h-8zM80 336h8v8h-8zM96 336h8v8h-8zM104 336h8v8h-8zM120 336h8v8h-8zM128 336h8v8h-8zM136 336h8v8h-8zM144 336h8v8h-8zM152 336h8v8h-8zM168 336h8v8h-8zM184 336h8v8h-8zM200 336h8v8h-8zM208 336h8v8h-8zM224 336h8v8h-8zM232 336h8v8h-8zM240 336h8v8h-8zM272 336h8v8h-8zM288 336h8v8h-8zM312 336h8v8h-8zM328 336h8v8h-8zM336 336h8v8h-8zM352 336h8v8h-8zM32 344h8v8h-8zM80 344h8v8h-8zM120 344h8v8h-8zM128 344h8v8h-8zM144 344h8v8h-8zM152 344h8v8h-8zM184 344h8v8h-8zM200 344h8v8h-8zM224 344h8v8h-8zM232 344h8v8h-8zM256 344h8v8h-8zM272 344h8v8h-8zM280 344h8v8h-8zM288 344h8v8h-8zM296 344h8v8h-8zM304 344h8v8h-8zM320 344h8v8h-8zM328 344h8v8h-8zM336 344h8v8h-8zM344 344h8v8h-8zM32 352h8v8h-8zM40 352h8v8h-8zM48 352h8v8h-8zM56 352h8v8h-8zM64 352h8v8h-8zM72 352h8v8h-8zM80 352h8v8h-8zM104 352h8v8h-8zM112 352h8v8h-8zM120 352h8v8h-8zM128 352h8v8h-8zM144 352h8v8h-8zM176 352h8v8h-8zM200 352h8v8h-8zM216 352h8v8h-8zM240 352h8v8h-8zM248 352h8v8h-8zM272 352h8v8h-8zM280 352h8v8h-8zM288 352h8v8h-8zM336 352h8v8h-8zM344 352h8v8h-8z"/></svg>
